M48
; DRILL file {KiCad 7.0.7} date Fri May 31 12:22:02 2024
; FORMAT={-:-/ absolute / inch / decimal}
; #@! TF.CreationDate,2024-05-31T12:22:02-07:00
; #@! TF.GenerationSoftware,Kicad,Pcbnew,7.0.7
; #@! TF.FileFunction,Plated,1,4,PTH
FMAT,2
INCH
; #@! TA.AperFunction,Plated,PTH,ViaDrill
T1C0.0098
; #@! TA.AperFunction,Plated,PTH,ViaDrill
T2C0.0157
; #@! TA.AperFunction,Plated,PTH,ComponentDrill
T3C0.0236
; #@! TA.AperFunction,Plated,PTH,ComponentDrill
T4C0.0276
; #@! TA.AperFunction,Plated,PTH,ComponentDrill
T5C0.0394
; #@! TA.AperFunction,Plated,PTH,ComponentDrill
T6C0.0433
; #@! TA.AperFunction,Plated,PTH,ComponentDrill
T7C0.0862
%
G90
G05
T1
X4.7402Y-3.3307
X4.7402Y-3.9291
X4.748Y-5.0945
X4.7559Y-2.7795
X4.7638Y-3.0079
X4.7638Y-3.1417
X4.7638Y-4.2992
X4.7717Y-3.6693
X4.7874Y-4.5354
X4.7874Y-4.8189
X4.7953Y-4.6378
X4.8504Y-3.1969
X4.8583Y-4.748
X4.8661Y-4.2913
X4.874Y-3.0866
X4.8898Y-4.4803
X4.8898Y-4.5984
X4.8976Y-3.3465
X4.9134Y-3.5748
X4.9409Y-3.8976
X4.9606Y-4.8425
X4.9685Y-5.0945
X4.9764Y-2.7874
X4.9843Y-4.4882
X4.9921Y-4.378
X5.0551Y-3.8898
X5.0551Y-3.9606
X5.0551Y-4.9291
X5.063Y-2.7874
X5.063Y-4.0866
X5.0787Y-3.8898
X5.0787Y-3.9606
X5.1024Y-3.8898
X5.1024Y-3.9606
X5.1024Y-4.4961
X5.1105Y-4.9446
X5.1181Y-4.0157
X5.126Y-3.8898
X5.126Y-3.9606
X5.126Y-4.0787
X5.126Y-4.1181
X5.1496Y-3.8898
X5.1496Y-3.9606
X5.1732Y-3.8898
X5.1732Y-3.9606
X5.1732Y-4.1732
X5.1811Y-2.7874
X5.189Y-4.9291
X5.1969Y-3.8898
X5.1969Y-3.9606
X5.2126Y-4.3543
X5.2126Y-4.8976
X5.2205Y-3.8898
X5.2205Y-3.9606
X5.2283Y-3.5669
X5.2283Y-3.7087
X5.2283Y-4.5512
X5.2441Y-3.8898
X5.2441Y-3.9606
X5.2598Y-3.378
X5.2598Y-4.0709
X5.2677Y-3.8583
X5.2756Y-4.2677
X5.2835Y-3.8898
X5.2913Y-4.4409
X5.2992Y-4.7953
X5.3071Y-2.9528
X5.3228Y-4.1969
X5.3268Y-4.0887
X5.3307Y-4.937
X5.3386Y-3.0866
X5.3386Y-3.8898
X5.3386Y-4.5906
X5.3435Y-4.0079
X5.3622Y-3.252
X5.3622Y-3.9764
X5.3854Y-4.1063
X5.4094Y-3.1811
X5.4094Y-4.937
X5.4173Y-4.189
X5.4173Y-4.8504
X5.4433Y-4.1958
X5.4646Y-3.5748
X5.4646Y-3.7559
X5.467Y-4.2054
X5.4724Y-3.7165
X5.4724Y-3.8733
X5.4724Y-3.9245
X5.4724Y-3.9796
X5.4724Y-4.0347
X5.4724Y-4.0859
X5.4803Y-4.7323
X5.4882Y-3.0866
X5.4882Y-4.6457
X5.4921Y-4.4409
X5.4953Y-4.206
X5.4961Y-2.9291
X5.5354Y-3.8733
X5.5354Y-3.9245
X5.5354Y-3.9796
X5.5354Y-4.0347
X5.5354Y-4.0859
X5.5512Y-4.5276
X5.5591Y-4.2126
X5.5591Y-3.7559
X5.5748Y-4.685
X5.5787Y-4.3425
X5.5906Y-3.874
X5.5906Y-3.9252
X5.5906Y-3.9764
X5.5906Y-4.0315
X5.5906Y-4.0866
X5.5967Y-4.1949
X5.5984Y-4.4331
X5.6182Y-4.2087
X5.622Y-3.4803
X5.642Y-4.2182
X5.6535Y-3.3071
X5.6535Y-3.8733
X5.6535Y-3.9245
X5.6535Y-3.9796
X5.6535Y-4.0347
X5.6535Y-4.0859
X5.6614Y-2.8031
X5.6614Y-2.9606
X5.6707Y-4.2185
X5.6772Y-3.2205
X5.6929Y-4.3622
X5.7008Y-3.4409
X5.7008Y-3.7717
X5.7027Y-4.2227
X5.7047Y-3.874
X5.7047Y-3.9252
X5.7047Y-3.9803
X5.7047Y-4.0354
X5.7047Y-4.0866
X5.7087Y-3.0709
X5.7171Y-3.4882
X5.7244Y-3.1969
X5.7283Y-3.7008
X5.7441Y-4.2264
X5.7559Y-4.6535
X5.7559Y-4.8346
X5.7717Y-2.8031
X5.7717Y-3.2441
X5.7717Y-3.4724
X5.7717Y-3.5827
X5.7756Y-4.1969
X5.7953Y-4.5118
X5.8095Y-3.8358
X5.811Y-4.0079
X5.8189Y-4.0787
X5.8268Y-3.0
X5.8386Y-3.8071
X5.8386Y-3.874
X5.8465Y-3.7008
X5.8504Y-2.8661
X5.8516Y-3.8989
X5.8582Y-4.1106
X5.8583Y-4.0551
X5.8642Y-3.9211
X5.874Y-4.2264
X5.8819Y-3.3882
X5.8819Y-3.748
X5.886Y-4.1653
X5.8898Y-4.4488
X5.8898Y-4.6535
X5.8898Y-4.748
X5.8898Y-4.8661
X5.8976Y-4.126
X5.8976Y-4.9921
X5.9075Y-4.1791
X5.9276Y-3.3685
X5.9282Y-4.1269
X5.9291Y-3.6614
X5.9449Y-3.4882
X5.9528Y-3.1024
X5.9528Y-3.2677
X5.9528Y-4.811
X5.9567Y-3.9213
X5.9567Y-4.3465
X5.9606Y-3.1654
X5.9606Y-3.5827
X5.9606Y-4.7717
X5.9646Y-4.1614
X5.9764Y-3.3858
X5.9764Y-4.685
X5.9919Y-3.7005
X5.9921Y-4.3228
X6.0Y-3.874
X6.0Y-4.4567
X6.0096Y-3.7773
X6.0118Y-4.1535
X6.0157Y-3.5039
X6.0236Y-3.0709
X6.0354Y-4.0906
X6.063Y-3.7638
X6.063Y-4.2047
X6.0709Y-2.8425
X6.0709Y-4.6614
X6.0709Y-4.8504
X6.0866Y-3.4567
X6.0866Y-3.8583
X6.0866Y-4.7874
X6.0945Y-3.5984
X6.0945Y-4.1339
X6.1102Y-4.5433
X6.1181Y-4.4016
X6.1299Y-3.9409
X6.1339Y-3.4882
X6.1339Y-3.9055
X6.1339Y-4.0157
X6.1417Y-3.8583
X6.1496Y-3.1969
X6.1496Y-4.1181
X6.1496Y-4.7874
X6.1575Y-4.0709
X6.1693Y-4.6516
X6.1828Y-3.3721
X6.189Y-2.7795
X6.189Y-4.5748
X6.2045Y-3.3937
X6.2047Y-3.5118
X6.2047Y-3.7677
X6.2047Y-3.8307
X6.2083Y-3.6847
X6.2087Y-3.7992
X6.2108Y-3.6593
X6.2126Y-3.6299
X6.2126Y-4.5433
X6.2205Y-4.6457
X6.2283Y-3.2283
X6.2283Y-3.2835
X6.2283Y-3.4134
X6.2283Y-4.4646
X6.2285Y-3.3621
X6.2358Y-4.0472
X6.252Y-3.1181
X6.2598Y-4.7953
X6.2913Y-4.0866
X6.315Y-3.9528
X6.315Y-5.1024
X6.3228Y-3.5906
X6.3228Y-5.0
X6.3465Y-3.6614
X6.3465Y-4.5512
X6.3543Y-3.7874
X6.3543Y-3.9134
X6.3543Y-4.685
X6.3701Y-3.2126
X6.3701Y-3.2835
X6.3701Y-3.4252
X6.3701Y-4.1732
X6.378Y-2.9291
X6.378Y-3.3543
X6.378Y-4.3307
X6.3858Y-4.0787
X6.4094Y-3.9685
X6.4094Y-4.0079
X6.4094Y-4.3307
X6.4252Y-3.5354
X6.4252Y-3.6614
X6.4252Y-3.7717
X6.4252Y-4.1496
X6.4252Y-4.9921
X6.4487Y-4.1972
X6.4488Y-3.126
X6.4724Y-4.5906
X6.4882Y-3.0787
X6.4882Y-4.5512
X6.5039Y-4.0787
X6.5118Y-4.6614
X6.5197Y-2.7795
X6.5197Y-4.7795
X6.5276Y-4.4882
X6.5276Y-4.622
X6.5512Y-3.5276
X6.5611Y-4.2234
X6.5669Y-3.9055
X6.5669Y-4.0709
X6.5669Y-4.3317
X6.5748Y-2.9291
X6.5748Y-4.2489
X6.5748Y-4.2805
X6.5827Y-3.1181
X6.5906Y-4.5748
X6.5984Y-4.8583
X6.6142Y-4.7244
X6.622Y-3.2598
X6.6299Y-4.0
X6.6457Y-3.7953
X6.6478Y-3.3995
X6.6614Y-4.5906
X6.6654Y-3.8172
X6.6792Y-3.8425
X6.685Y-3.5039
X6.685Y-3.6142
X6.685Y-5.0945
X6.6929Y-4.2835
X6.695Y-3.9627
X6.6971Y-3.421
X6.7008Y-4.1339
X6.7087Y-2.7717
X6.7087Y-3.2992
X6.7087Y-4.9055
X6.7165Y-3.0709
X6.7323Y-4.0
X6.7402Y-4.2677
X6.748Y-3.1024
X6.7795Y-4.4646
X6.7874Y-4.3307
X6.7874Y-4.7874
X6.8189Y-3.6772
X6.8425Y-3.9449
X6.8425Y-3.2913
X6.8583Y-3.9055
X6.8583Y-4.0866
X6.8583Y-4.9764
X6.8661Y-4.2441
X6.874Y-3.4173
X6.8898Y-3.6063
X6.8976Y-2.9685
X6.8976Y-3.7795
X6.9055Y-4.8976
X6.9134Y-3.3465
X6.9213Y-4.3701
X6.9291Y-3.748
X6.937Y-4.0551
X6.9843Y-5.0787
X7.0Y-2.9528
X7.0079Y-4.7244
X7.0157Y-2.8031
X7.0394Y-4.4882
X7.0551Y-4.7953
X7.0709Y-3.3228
X7.1654Y-3.3858
X7.1811Y-2.9606
X7.1811Y-4.6457
X7.189Y-2.8031
X7.189Y-4.8425
X7.1969Y-4.4882
X7.2205Y-5.0945
T2
X4.8976Y-3.2756
X4.9134Y-3.1417
X4.931Y-3.0098
X4.9843Y-4.1654
X5.0157Y-3.7244
X5.0472Y-2.8976
X5.063Y-3.1024
X5.1181Y-3.2205
T4
X5.0315Y-3.4134
X5.0315Y-3.5118
X5.1102Y-3.4134
X5.1102Y-3.5118
X5.189Y-3.4134
X5.189Y-3.5118
T5
X4.8268Y-4.3937
X5.063Y-5.0472
X5.163Y-5.0472
X5.214Y-2.9181
X5.214Y-3.0181
X5.214Y-3.1181
X5.263Y-5.0472
X5.314Y-2.8181
X5.314Y-3.2181
X5.363Y-5.0472
X5.514Y-2.8181
X5.514Y-3.2181
X5.5144Y-4.9464
X5.5144Y-5.0464
X5.614Y-2.9181
X5.614Y-3.0181
X5.614Y-3.1181
X5.6144Y-4.9464
X5.6144Y-5.0464
X5.7144Y-4.9464
X5.7144Y-5.0464
X5.8144Y-4.9464
X5.8144Y-5.0464
X5.9709Y-4.9472
X5.9709Y-5.0472
X6.0709Y-4.9472
X6.0709Y-5.0472
X6.1709Y-4.9472
X6.1709Y-5.0472
X6.2709Y-4.9472
X6.2709Y-5.0472
X6.3709Y-4.9472
X6.3709Y-5.0472
X6.4709Y-4.9472
X6.4709Y-5.0472
X6.5709Y-4.9472
X6.5709Y-5.0472
X6.7244Y-4.5354
X6.8244Y-4.5354
X6.8898Y-3.1077
X6.8898Y-3.2077
T6
X5.9252Y-2.8819
X5.9252Y-2.9819
X6.0252Y-2.8819
X6.0252Y-2.9819
X6.1252Y-2.8819
X6.1252Y-2.9819
X6.2252Y-2.8819
X6.2252Y-2.9819
X6.3252Y-2.8819
X6.3252Y-2.9819
X6.4252Y-2.8819
X6.4252Y-2.9819
X6.5252Y-2.8819
X6.5252Y-2.9819
X6.6252Y-2.8819
X6.6252Y-2.9819
X6.7252Y-2.8819
X6.7252Y-2.9819
X6.8252Y-2.8819
X6.8252Y-2.9819
X7.0181Y-3.4874
X7.0181Y-3.5874
X7.0181Y-3.6874
X7.0181Y-3.7874
X7.0181Y-3.8874
X7.0181Y-3.9874
X7.0181Y-4.0874
X7.0181Y-4.1874
X7.0181Y-4.2874
X7.0181Y-4.3874
X7.1181Y-3.4874
X7.1181Y-3.5874
X7.1181Y-3.6874
X7.1181Y-3.7874
X7.1181Y-3.8874
X7.1181Y-3.9874
X7.1181Y-4.0874
X7.1181Y-4.1874
X7.1181Y-4.2874
X7.1181Y-4.3874
T7
X4.8386Y-3.4626
X5.3819Y-3.4626
T3
G00X4.7988Y-3.7748
M15
G01X4.7752Y-3.7748
M16
G05
G00X4.7988Y-4.115
M15
G01X4.7752Y-4.115
M16
G05
G00X4.9732Y-3.7748
M15
G01X4.9299Y-3.7748
M16
G05
G00X4.9732Y-4.115
M15
G01X4.9299Y-4.115
M16
G05
T0
M30
