%TF.GenerationSoftware,KiCad,Pcbnew,7.0.7*%
%TF.CreationDate,2024-05-31T12:22:19-07:00*%
%TF.ProjectId,Serberus,53657262-6572-4757-932e-6b696361645f,V2.2*%
%TF.SameCoordinates,Original*%
%TF.FileFunction,Soldermask,Bot*%
%TF.FilePolarity,Negative*%
%FSLAX46Y46*%
G04 Gerber Fmt 4.6, Leading zero omitted, Abs format (unit mm)*
G04 Created by KiCad (PCBNEW 7.0.7) date 2024-05-31 12:22:19*
%MOMM*%
%LPD*%
G01*
G04 APERTURE LIST*
G04 Aperture macros list*
%AMRoundRect*
0 Rectangle with rounded corners*
0 $1 Rounding radius*
0 $2 $3 $4 $5 $6 $7 $8 $9 X,Y pos of 4 corners*
0 Add a 4 corners polygon primitive as box body*
4,1,4,$2,$3,$4,$5,$6,$7,$8,$9,$2,$3,0*
0 Add four circle primitives for the rounded corners*
1,1,$1+$1,$2,$3*
1,1,$1+$1,$4,$5*
1,1,$1+$1,$6,$7*
1,1,$1+$1,$8,$9*
0 Add four rect primitives between the rounded corners*
20,1,$1+$1,$2,$3,$4,$5,0*
20,1,$1+$1,$4,$5,$6,$7,0*
20,1,$1+$1,$6,$7,$8,$9,0*
20,1,$1+$1,$8,$9,$2,$3,0*%
%AMFreePoly0*
4,1,35,0.535355,0.785355,0.550000,0.750000,0.550000,-0.750000,0.535355,-0.785355,0.500000,-0.800000,0.000000,-0.800000,-0.012286,-0.794911,-0.071157,-0.794911,-0.085244,-0.792886,-0.221795,-0.752791,-0.234740,-0.746879,-0.354462,-0.669938,-0.365217,-0.660618,-0.458414,-0.553063,-0.466109,-0.541091,-0.525228,-0.411637,-0.529237,-0.397982,-0.549491,-0.257116,-0.550000,-0.250000,-0.550000,0.250000,
-0.549491,0.257116,-0.529237,0.397982,-0.525228,0.411637,-0.466109,0.541091,-0.458414,0.553063,-0.365217,0.660618,-0.354462,0.669938,-0.234740,0.746879,-0.221795,0.752791,-0.085244,0.792886,-0.071157,0.794911,-0.012286,0.794911,0.000000,0.800000,0.500000,0.800000,0.535355,0.785355,0.535355,0.785355,$1*%
%AMFreePoly1*
4,1,35,0.012286,0.794911,0.071157,0.794911,0.085244,0.792886,0.221795,0.752791,0.234740,0.746879,0.354462,0.669938,0.365217,0.660618,0.458414,0.553063,0.466109,0.541091,0.525228,0.411637,0.529237,0.397982,0.549491,0.257116,0.550000,0.250000,0.550000,-0.250000,0.549491,-0.257116,0.529237,-0.397982,0.525228,-0.411637,0.466109,-0.541091,0.458414,-0.553063,0.365217,-0.660618,
0.354462,-0.669938,0.234740,-0.746879,0.221795,-0.752791,0.085244,-0.792886,0.071157,-0.794911,0.012286,-0.794911,0.000000,-0.800000,-0.500000,-0.800000,-0.535355,-0.785355,-0.550000,-0.750000,-0.550000,0.750000,-0.535355,0.785355,-0.500000,0.800000,0.000000,0.800000,0.012286,0.794911,0.012286,0.794911,$1*%
G04 Aperture macros list end*
%ADD10C,2.100000*%
%ADD11C,3.300000*%
%ADD12RoundRect,0.050000X0.850000X-0.850000X0.850000X0.850000X-0.850000X0.850000X-0.850000X-0.850000X0*%
%ADD13O,1.800000X1.800000*%
%ADD14RoundRect,0.475000X-0.425000X0.425000X-0.425000X-0.425000X0.425000X-0.425000X0.425000X0.425000X0*%
%ADD15RoundRect,0.050000X-0.825000X0.825000X-0.825000X-0.825000X0.825000X-0.825000X0.825000X0.825000X0*%
%ADD16C,1.750000*%
%ADD17C,0.750000*%
%ADD18O,2.200000X1.100000*%
%ADD19O,1.700000X1.100000*%
%ADD20C,1.300000*%
%ADD21C,3.385000*%
%ADD22C,1.600000*%
%ADD23RoundRect,0.050000X-0.825000X-0.825000X0.825000X-0.825000X0.825000X0.825000X-0.825000X0.825000X0*%
%ADD24RoundRect,0.050000X0.850000X0.850000X-0.850000X0.850000X-0.850000X-0.850000X0.850000X-0.850000X0*%
%ADD25FreePoly0,0.000000*%
%ADD26FreePoly1,0.000000*%
G04 APERTURE END LIST*
D10*
%TO.C,TP1*%
X122600000Y-111600000D03*
%TD*%
D11*
%TO.C,H4*%
X180800000Y-126800000D03*
%TD*%
D12*
%TO.C,J7*%
X128600000Y-128200000D03*
D13*
X131140000Y-128200000D03*
X133680000Y-128200000D03*
X136220000Y-128200000D03*
%TD*%
D14*
%TO.C,J5*%
X147685500Y-125639500D03*
D13*
X147685500Y-128179500D03*
X145145500Y-125639500D03*
X145145500Y-128179500D03*
X142605500Y-125639500D03*
X142605500Y-128179500D03*
X140065500Y-125639500D03*
X140065500Y-128179500D03*
%TD*%
D15*
%TO.C,J3*%
X178260000Y-88580000D03*
D16*
X180800000Y-88580000D03*
X178260000Y-91120000D03*
X180800000Y-91120000D03*
X178260000Y-93660000D03*
X180800000Y-93660000D03*
X178260000Y-96200000D03*
X180800000Y-96200000D03*
X178260000Y-98740000D03*
X180800000Y-98740000D03*
X178260000Y-101280000D03*
X180800000Y-101280000D03*
X178260000Y-103820000D03*
X180800000Y-103820000D03*
X178260000Y-106360000D03*
X180800000Y-106360000D03*
X178260000Y-108900000D03*
X180800000Y-108900000D03*
X178260000Y-111440000D03*
X180800000Y-111440000D03*
%TD*%
D12*
%TO.C,J8*%
X170800000Y-115200000D03*
D13*
X173340000Y-115200000D03*
%TD*%
D11*
%TO.C,H3*%
X123200000Y-126800000D03*
%TD*%
%TO.C,H2*%
X180800000Y-79600000D03*
%TD*%
D12*
%TO.C,J4*%
X151660000Y-128200000D03*
D13*
X151660000Y-125660000D03*
X154200000Y-128200000D03*
X154200000Y-125660000D03*
X156740000Y-128200000D03*
X156740000Y-125660000D03*
X159280000Y-128200000D03*
X159280000Y-125660000D03*
X161820000Y-128200000D03*
X161820000Y-125660000D03*
X164360000Y-128200000D03*
X164360000Y-125660000D03*
X166900000Y-128200000D03*
X166900000Y-125660000D03*
%TD*%
D17*
%TO.C,J1*%
X125240000Y-97310000D03*
X125240000Y-103090000D03*
D18*
X125770000Y-95880000D03*
D19*
X121590000Y-95880000D03*
D18*
X125770000Y-104520000D03*
D19*
X121590000Y-104520000D03*
%TD*%
D20*
%TO.C,SW2*%
X127800000Y-89200000D03*
X129800000Y-89200000D03*
X131800000Y-89200000D03*
X127800000Y-86700000D03*
X129800000Y-86700000D03*
X131800000Y-86700000D03*
D21*
X122900000Y-87950000D03*
X136700000Y-87950000D03*
%TD*%
D22*
%TO.C,SW1*%
X142595000Y-79200000D03*
X132435000Y-79200000D03*
X132435000Y-76660000D03*
X132435000Y-74120000D03*
X142595000Y-74120000D03*
X142595000Y-76660000D03*
X140055000Y-81740000D03*
X134975000Y-81740000D03*
X134975000Y-71580000D03*
X140055000Y-71580000D03*
%TD*%
D23*
%TO.C,J2*%
X150500000Y-75740000D03*
D16*
X150500000Y-73200000D03*
X153040000Y-75740000D03*
X153040000Y-73200000D03*
X155580000Y-75740000D03*
X155580000Y-73200000D03*
X158120000Y-75740000D03*
X158120000Y-73200000D03*
X160660000Y-75740000D03*
X160660000Y-73200000D03*
X163200000Y-75740000D03*
X163200000Y-73200000D03*
X165740000Y-75740000D03*
X165740000Y-73200000D03*
X168280000Y-75740000D03*
X168280000Y-73200000D03*
X170820000Y-75740000D03*
X170820000Y-73200000D03*
X173360000Y-75740000D03*
X173360000Y-73200000D03*
%TD*%
D24*
%TO.C,J9*%
X175000000Y-81475000D03*
D13*
X175000000Y-78935000D03*
%TD*%
D11*
%TO.C,H1*%
X123200000Y-73200000D03*
%TD*%
D25*
%TO.C,JP1*%
X156700000Y-119850000D03*
D26*
X158000000Y-119850000D03*
%TD*%
M02*
