%TF.GenerationSoftware,KiCad,Pcbnew,7.0.7*%
%TF.CreationDate,2024-05-31T12:22:19-07:00*%
%TF.ProjectId,Serberus,53657262-6572-4757-932e-6b696361645f,V2.2*%
%TF.SameCoordinates,Original*%
%TF.FileFunction,Legend,Bot*%
%TF.FilePolarity,Positive*%
%FSLAX46Y46*%
G04 Gerber Fmt 4.6, Leading zero omitted, Abs format (unit mm)*
G04 Created by KiCad (PCBNEW 7.0.7) date 2024-05-31 12:22:19*
%MOMM*%
%LPD*%
G01*
G04 APERTURE LIST*
%ADD10C,0.125000*%
%ADD11C,0.100000*%
%ADD12C,0.120000*%
%ADD13C,0.500000*%
G04 APERTURE END LIST*
D10*
X158257142Y-118424809D02*
X158257142Y-117924809D01*
X158257142Y-118162904D02*
X157971428Y-118162904D01*
X157971428Y-118424809D02*
X157971428Y-117924809D01*
X157757141Y-118281952D02*
X157519046Y-118281952D01*
X157804760Y-118424809D02*
X157638094Y-117924809D01*
X157638094Y-117924809D02*
X157471427Y-118424809D01*
X157019047Y-118377190D02*
X157042856Y-118401000D01*
X157042856Y-118401000D02*
X157114285Y-118424809D01*
X157114285Y-118424809D02*
X157161904Y-118424809D01*
X157161904Y-118424809D02*
X157233332Y-118401000D01*
X157233332Y-118401000D02*
X157280951Y-118353380D01*
X157280951Y-118353380D02*
X157304761Y-118305761D01*
X157304761Y-118305761D02*
X157328570Y-118210523D01*
X157328570Y-118210523D02*
X157328570Y-118139095D01*
X157328570Y-118139095D02*
X157304761Y-118043857D01*
X157304761Y-118043857D02*
X157280951Y-117996238D01*
X157280951Y-117996238D02*
X157233332Y-117948619D01*
X157233332Y-117948619D02*
X157161904Y-117924809D01*
X157161904Y-117924809D02*
X157114285Y-117924809D01*
X157114285Y-117924809D02*
X157042856Y-117948619D01*
X157042856Y-117948619D02*
X157019047Y-117972428D01*
X156804761Y-118424809D02*
X156804761Y-117924809D01*
X156519047Y-118424809D02*
X156733332Y-118139095D01*
X156519047Y-117924809D02*
X156804761Y-118210523D01*
D11*
X166477068Y-70921371D02*
X166277068Y-71521371D01*
X166277068Y-71521371D02*
X166077068Y-70921371D01*
X165962782Y-70921371D02*
X165619925Y-70921371D01*
X165791353Y-71521371D02*
X165791353Y-70921371D01*
X165448496Y-71349942D02*
X165162782Y-71349942D01*
X165505639Y-71521371D02*
X165305639Y-70921371D01*
X165305639Y-70921371D02*
X165105639Y-71521371D01*
X164562781Y-71521371D02*
X164762781Y-71235657D01*
X164905638Y-71521371D02*
X164905638Y-70921371D01*
X164905638Y-70921371D02*
X164677067Y-70921371D01*
X164677067Y-70921371D02*
X164619924Y-70949942D01*
X164619924Y-70949942D02*
X164591353Y-70978514D01*
X164591353Y-70978514D02*
X164562781Y-71035657D01*
X164562781Y-71035657D02*
X164562781Y-71121371D01*
X164562781Y-71121371D02*
X164591353Y-71178514D01*
X164591353Y-71178514D02*
X164619924Y-71207085D01*
X164619924Y-71207085D02*
X164677067Y-71235657D01*
X164677067Y-71235657D02*
X164905638Y-71235657D01*
X156077068Y-70921371D02*
X155734211Y-70921371D01*
X155905639Y-71521371D02*
X155905639Y-70921371D01*
X155591353Y-70921371D02*
X155191353Y-71521371D01*
X155191353Y-70921371D02*
X155591353Y-71521371D01*
X154962781Y-71292800D02*
X154505639Y-71292800D01*
X153877067Y-71464228D02*
X153905639Y-71492800D01*
X153905639Y-71492800D02*
X153991353Y-71521371D01*
X153991353Y-71521371D02*
X154048496Y-71521371D01*
X154048496Y-71521371D02*
X154134210Y-71492800D01*
X154134210Y-71492800D02*
X154191353Y-71435657D01*
X154191353Y-71435657D02*
X154219924Y-71378514D01*
X154219924Y-71378514D02*
X154248496Y-71264228D01*
X154248496Y-71264228D02*
X154248496Y-71178514D01*
X154248496Y-71178514D02*
X154219924Y-71064228D01*
X154219924Y-71064228D02*
X154191353Y-71007085D01*
X154191353Y-71007085D02*
X154134210Y-70949942D01*
X154134210Y-70949942D02*
X154048496Y-70921371D01*
X154048496Y-70921371D02*
X153991353Y-70921371D01*
X153991353Y-70921371D02*
X153905639Y-70949942D01*
X153905639Y-70949942D02*
X153877067Y-70978514D01*
X153619924Y-71292800D02*
X153162782Y-71292800D01*
X152534210Y-71521371D02*
X152734210Y-71235657D01*
X152877067Y-71521371D02*
X152877067Y-70921371D01*
X152877067Y-70921371D02*
X152648496Y-70921371D01*
X152648496Y-70921371D02*
X152591353Y-70949942D01*
X152591353Y-70949942D02*
X152562782Y-70978514D01*
X152562782Y-70978514D02*
X152534210Y-71035657D01*
X152534210Y-71035657D02*
X152534210Y-71121371D01*
X152534210Y-71121371D02*
X152562782Y-71178514D01*
X152562782Y-71178514D02*
X152591353Y-71207085D01*
X152591353Y-71207085D02*
X152648496Y-71235657D01*
X152648496Y-71235657D02*
X152877067Y-71235657D01*
X152334210Y-70921371D02*
X151934210Y-71521371D01*
X151934210Y-70921371D02*
X152334210Y-71521371D01*
X176077068Y-72549942D02*
X176134211Y-72521371D01*
X176134211Y-72521371D02*
X176219925Y-72521371D01*
X176219925Y-72521371D02*
X176305639Y-72549942D01*
X176305639Y-72549942D02*
X176362782Y-72607085D01*
X176362782Y-72607085D02*
X176391353Y-72664228D01*
X176391353Y-72664228D02*
X176419925Y-72778514D01*
X176419925Y-72778514D02*
X176419925Y-72864228D01*
X176419925Y-72864228D02*
X176391353Y-72978514D01*
X176391353Y-72978514D02*
X176362782Y-73035657D01*
X176362782Y-73035657D02*
X176305639Y-73092800D01*
X176305639Y-73092800D02*
X176219925Y-73121371D01*
X176219925Y-73121371D02*
X176162782Y-73121371D01*
X176162782Y-73121371D02*
X176077068Y-73092800D01*
X176077068Y-73092800D02*
X176048496Y-73064228D01*
X176048496Y-73064228D02*
X176048496Y-72864228D01*
X176048496Y-72864228D02*
X176162782Y-72864228D01*
X175791353Y-73121371D02*
X175791353Y-72521371D01*
X175791353Y-72521371D02*
X175448496Y-73121371D01*
X175448496Y-73121371D02*
X175448496Y-72521371D01*
X175162782Y-73121371D02*
X175162782Y-72521371D01*
X175162782Y-72521371D02*
X175019925Y-72521371D01*
X175019925Y-72521371D02*
X174934211Y-72549942D01*
X174934211Y-72549942D02*
X174877068Y-72607085D01*
X174877068Y-72607085D02*
X174848497Y-72664228D01*
X174848497Y-72664228D02*
X174819925Y-72778514D01*
X174819925Y-72778514D02*
X174819925Y-72864228D01*
X174819925Y-72864228D02*
X174848497Y-72978514D01*
X174848497Y-72978514D02*
X174877068Y-73035657D01*
X174877068Y-73035657D02*
X174934211Y-73092800D01*
X174934211Y-73092800D02*
X175019925Y-73121371D01*
X175019925Y-73121371D02*
X175162782Y-73121371D01*
X166191353Y-77721371D02*
X166191353Y-77121371D01*
X166191353Y-77121371D02*
X166048496Y-77121371D01*
X166048496Y-77121371D02*
X165962782Y-77149942D01*
X165962782Y-77149942D02*
X165905639Y-77207085D01*
X165905639Y-77207085D02*
X165877068Y-77264228D01*
X165877068Y-77264228D02*
X165848496Y-77378514D01*
X165848496Y-77378514D02*
X165848496Y-77464228D01*
X165848496Y-77464228D02*
X165877068Y-77578514D01*
X165877068Y-77578514D02*
X165905639Y-77635657D01*
X165905639Y-77635657D02*
X165962782Y-77692800D01*
X165962782Y-77692800D02*
X166048496Y-77721371D01*
X166048496Y-77721371D02*
X166191353Y-77721371D01*
X165677068Y-77121371D02*
X165334211Y-77121371D01*
X165505639Y-77721371D02*
X165505639Y-77121371D01*
X164791353Y-77721371D02*
X164991353Y-77435657D01*
X165134210Y-77721371D02*
X165134210Y-77121371D01*
X165134210Y-77121371D02*
X164905639Y-77121371D01*
X164905639Y-77121371D02*
X164848496Y-77149942D01*
X164848496Y-77149942D02*
X164819925Y-77178514D01*
X164819925Y-77178514D02*
X164791353Y-77235657D01*
X164791353Y-77235657D02*
X164791353Y-77321371D01*
X164791353Y-77321371D02*
X164819925Y-77378514D01*
X164819925Y-77378514D02*
X164848496Y-77407085D01*
X164848496Y-77407085D02*
X164905639Y-77435657D01*
X164905639Y-77435657D02*
X165134210Y-77435657D01*
X171477068Y-70921371D02*
X171134211Y-70921371D01*
X171305639Y-71521371D02*
X171305639Y-70921371D01*
X170991353Y-70921371D02*
X170591353Y-71521371D01*
X170591353Y-70921371D02*
X170991353Y-71521371D01*
X170362781Y-71292800D02*
X169905639Y-71292800D01*
X169619924Y-71521371D02*
X169619924Y-70921371D01*
X169619924Y-70921371D02*
X169477067Y-70921371D01*
X169477067Y-70921371D02*
X169391353Y-70949942D01*
X169391353Y-70949942D02*
X169334210Y-71007085D01*
X169334210Y-71007085D02*
X169305639Y-71064228D01*
X169305639Y-71064228D02*
X169277067Y-71178514D01*
X169277067Y-71178514D02*
X169277067Y-71264228D01*
X169277067Y-71264228D02*
X169305639Y-71378514D01*
X169305639Y-71378514D02*
X169334210Y-71435657D01*
X169334210Y-71435657D02*
X169391353Y-71492800D01*
X169391353Y-71492800D02*
X169477067Y-71521371D01*
X169477067Y-71521371D02*
X169619924Y-71521371D01*
X169019924Y-71292800D02*
X168562782Y-71292800D01*
X167934210Y-71521371D02*
X168134210Y-71235657D01*
X168277067Y-71521371D02*
X168277067Y-70921371D01*
X168277067Y-70921371D02*
X168048496Y-70921371D01*
X168048496Y-70921371D02*
X167991353Y-70949942D01*
X167991353Y-70949942D02*
X167962782Y-70978514D01*
X167962782Y-70978514D02*
X167934210Y-71035657D01*
X167934210Y-71035657D02*
X167934210Y-71121371D01*
X167934210Y-71121371D02*
X167962782Y-71178514D01*
X167962782Y-71178514D02*
X167991353Y-71207085D01*
X167991353Y-71207085D02*
X168048496Y-71235657D01*
X168048496Y-71235657D02*
X168277067Y-71235657D01*
X167734210Y-70921371D02*
X167334210Y-71521371D01*
X167334210Y-70921371D02*
X167734210Y-71521371D01*
X148877068Y-75321371D02*
X148677068Y-75921371D01*
X148677068Y-75921371D02*
X148477068Y-75321371D01*
X148362782Y-75321371D02*
X148019925Y-75321371D01*
X148191353Y-75921371D02*
X148191353Y-75321371D01*
X147848496Y-75749942D02*
X147562782Y-75749942D01*
X147905639Y-75921371D02*
X147705639Y-75321371D01*
X147705639Y-75321371D02*
X147505639Y-75921371D01*
X146962781Y-75921371D02*
X147162781Y-75635657D01*
X147305638Y-75921371D02*
X147305638Y-75321371D01*
X147305638Y-75321371D02*
X147077067Y-75321371D01*
X147077067Y-75321371D02*
X147019924Y-75349942D01*
X147019924Y-75349942D02*
X146991353Y-75378514D01*
X146991353Y-75378514D02*
X146962781Y-75435657D01*
X146962781Y-75435657D02*
X146962781Y-75521371D01*
X146962781Y-75521371D02*
X146991353Y-75578514D01*
X146991353Y-75578514D02*
X147019924Y-75607085D01*
X147019924Y-75607085D02*
X147077067Y-75635657D01*
X147077067Y-75635657D02*
X147305638Y-75635657D01*
X171391353Y-77721371D02*
X171391353Y-77121371D01*
X171391353Y-77121371D02*
X171248496Y-77121371D01*
X171248496Y-77121371D02*
X171162782Y-77149942D01*
X171162782Y-77149942D02*
X171105639Y-77207085D01*
X171105639Y-77207085D02*
X171077068Y-77264228D01*
X171077068Y-77264228D02*
X171048496Y-77378514D01*
X171048496Y-77378514D02*
X171048496Y-77464228D01*
X171048496Y-77464228D02*
X171077068Y-77578514D01*
X171077068Y-77578514D02*
X171105639Y-77635657D01*
X171105639Y-77635657D02*
X171162782Y-77692800D01*
X171162782Y-77692800D02*
X171248496Y-77721371D01*
X171248496Y-77721371D02*
X171391353Y-77721371D01*
X170448496Y-77664228D02*
X170477068Y-77692800D01*
X170477068Y-77692800D02*
X170562782Y-77721371D01*
X170562782Y-77721371D02*
X170619925Y-77721371D01*
X170619925Y-77721371D02*
X170705639Y-77692800D01*
X170705639Y-77692800D02*
X170762782Y-77635657D01*
X170762782Y-77635657D02*
X170791353Y-77578514D01*
X170791353Y-77578514D02*
X170819925Y-77464228D01*
X170819925Y-77464228D02*
X170819925Y-77378514D01*
X170819925Y-77378514D02*
X170791353Y-77264228D01*
X170791353Y-77264228D02*
X170762782Y-77207085D01*
X170762782Y-77207085D02*
X170705639Y-77149942D01*
X170705639Y-77149942D02*
X170619925Y-77121371D01*
X170619925Y-77121371D02*
X170562782Y-77121371D01*
X170562782Y-77121371D02*
X170477068Y-77149942D01*
X170477068Y-77149942D02*
X170448496Y-77178514D01*
X170191353Y-77721371D02*
X170191353Y-77121371D01*
X170191353Y-77121371D02*
X170048496Y-77121371D01*
X170048496Y-77121371D02*
X169962782Y-77149942D01*
X169962782Y-77149942D02*
X169905639Y-77207085D01*
X169905639Y-77207085D02*
X169877068Y-77264228D01*
X169877068Y-77264228D02*
X169848496Y-77378514D01*
X169848496Y-77378514D02*
X169848496Y-77464228D01*
X169848496Y-77464228D02*
X169877068Y-77578514D01*
X169877068Y-77578514D02*
X169905639Y-77635657D01*
X169905639Y-77635657D02*
X169962782Y-77692800D01*
X169962782Y-77692800D02*
X170048496Y-77721371D01*
X170048496Y-77721371D02*
X170191353Y-77721371D01*
X160848496Y-77721371D02*
X161048496Y-77435657D01*
X161191353Y-77721371D02*
X161191353Y-77121371D01*
X161191353Y-77121371D02*
X160962782Y-77121371D01*
X160962782Y-77121371D02*
X160905639Y-77149942D01*
X160905639Y-77149942D02*
X160877068Y-77178514D01*
X160877068Y-77178514D02*
X160848496Y-77235657D01*
X160848496Y-77235657D02*
X160848496Y-77321371D01*
X160848496Y-77321371D02*
X160877068Y-77378514D01*
X160877068Y-77378514D02*
X160905639Y-77407085D01*
X160905639Y-77407085D02*
X160962782Y-77435657D01*
X160962782Y-77435657D02*
X161191353Y-77435657D01*
X160677068Y-77121371D02*
X160334211Y-77121371D01*
X160505639Y-77721371D02*
X160505639Y-77121371D01*
X160162782Y-77692800D02*
X160077068Y-77721371D01*
X160077068Y-77721371D02*
X159934210Y-77721371D01*
X159934210Y-77721371D02*
X159877068Y-77692800D01*
X159877068Y-77692800D02*
X159848496Y-77664228D01*
X159848496Y-77664228D02*
X159819925Y-77607085D01*
X159819925Y-77607085D02*
X159819925Y-77549942D01*
X159819925Y-77549942D02*
X159848496Y-77492800D01*
X159848496Y-77492800D02*
X159877068Y-77464228D01*
X159877068Y-77464228D02*
X159934210Y-77435657D01*
X159934210Y-77435657D02*
X160048496Y-77407085D01*
X160048496Y-77407085D02*
X160105639Y-77378514D01*
X160105639Y-77378514D02*
X160134210Y-77349942D01*
X160134210Y-77349942D02*
X160162782Y-77292800D01*
X160162782Y-77292800D02*
X160162782Y-77235657D01*
X160162782Y-77235657D02*
X160134210Y-77178514D01*
X160134210Y-77178514D02*
X160105639Y-77149942D01*
X160105639Y-77149942D02*
X160048496Y-77121371D01*
X160048496Y-77121371D02*
X159905639Y-77121371D01*
X159905639Y-77121371D02*
X159819925Y-77149942D01*
X153277068Y-77149942D02*
X153334211Y-77121371D01*
X153334211Y-77121371D02*
X153419925Y-77121371D01*
X153419925Y-77121371D02*
X153505639Y-77149942D01*
X153505639Y-77149942D02*
X153562782Y-77207085D01*
X153562782Y-77207085D02*
X153591353Y-77264228D01*
X153591353Y-77264228D02*
X153619925Y-77378514D01*
X153619925Y-77378514D02*
X153619925Y-77464228D01*
X153619925Y-77464228D02*
X153591353Y-77578514D01*
X153591353Y-77578514D02*
X153562782Y-77635657D01*
X153562782Y-77635657D02*
X153505639Y-77692800D01*
X153505639Y-77692800D02*
X153419925Y-77721371D01*
X153419925Y-77721371D02*
X153362782Y-77721371D01*
X153362782Y-77721371D02*
X153277068Y-77692800D01*
X153277068Y-77692800D02*
X153248496Y-77664228D01*
X153248496Y-77664228D02*
X153248496Y-77464228D01*
X153248496Y-77464228D02*
X153362782Y-77464228D01*
X152991353Y-77721371D02*
X152991353Y-77121371D01*
X152991353Y-77121371D02*
X152648496Y-77721371D01*
X152648496Y-77721371D02*
X152648496Y-77121371D01*
X152362782Y-77721371D02*
X152362782Y-77121371D01*
X152362782Y-77121371D02*
X152219925Y-77121371D01*
X152219925Y-77121371D02*
X152134211Y-77149942D01*
X152134211Y-77149942D02*
X152077068Y-77207085D01*
X152077068Y-77207085D02*
X152048497Y-77264228D01*
X152048497Y-77264228D02*
X152019925Y-77378514D01*
X152019925Y-77378514D02*
X152019925Y-77464228D01*
X152019925Y-77464228D02*
X152048497Y-77578514D01*
X152048497Y-77578514D02*
X152077068Y-77635657D01*
X152077068Y-77635657D02*
X152134211Y-77692800D01*
X152134211Y-77692800D02*
X152219925Y-77721371D01*
X152219925Y-77721371D02*
X152362782Y-77721371D01*
X149077068Y-72721371D02*
X148877068Y-73321371D01*
X148877068Y-73321371D02*
X148677068Y-72721371D01*
X148562782Y-72721371D02*
X148219925Y-72721371D01*
X148391353Y-73321371D02*
X148391353Y-72721371D01*
X148048496Y-73149942D02*
X147762782Y-73149942D01*
X148105639Y-73321371D02*
X147905639Y-72721371D01*
X147905639Y-72721371D02*
X147705639Y-73321371D01*
X147162781Y-73321371D02*
X147362781Y-73035657D01*
X147505638Y-73321371D02*
X147505638Y-72721371D01*
X147505638Y-72721371D02*
X147277067Y-72721371D01*
X147277067Y-72721371D02*
X147219924Y-72749942D01*
X147219924Y-72749942D02*
X147191353Y-72778514D01*
X147191353Y-72778514D02*
X147162781Y-72835657D01*
X147162781Y-72835657D02*
X147162781Y-72921371D01*
X147162781Y-72921371D02*
X147191353Y-72978514D01*
X147191353Y-72978514D02*
X147219924Y-73007085D01*
X147219924Y-73007085D02*
X147277067Y-73035657D01*
X147277067Y-73035657D02*
X147505638Y-73035657D01*
X163448496Y-77664228D02*
X163477068Y-77692800D01*
X163477068Y-77692800D02*
X163562782Y-77721371D01*
X163562782Y-77721371D02*
X163619925Y-77721371D01*
X163619925Y-77721371D02*
X163705639Y-77692800D01*
X163705639Y-77692800D02*
X163762782Y-77635657D01*
X163762782Y-77635657D02*
X163791353Y-77578514D01*
X163791353Y-77578514D02*
X163819925Y-77464228D01*
X163819925Y-77464228D02*
X163819925Y-77378514D01*
X163819925Y-77378514D02*
X163791353Y-77264228D01*
X163791353Y-77264228D02*
X163762782Y-77207085D01*
X163762782Y-77207085D02*
X163705639Y-77149942D01*
X163705639Y-77149942D02*
X163619925Y-77121371D01*
X163619925Y-77121371D02*
X163562782Y-77121371D01*
X163562782Y-77121371D02*
X163477068Y-77149942D01*
X163477068Y-77149942D02*
X163448496Y-77178514D01*
X163277068Y-77121371D02*
X162934211Y-77121371D01*
X163105639Y-77721371D02*
X163105639Y-77121371D01*
X162762782Y-77692800D02*
X162677068Y-77721371D01*
X162677068Y-77721371D02*
X162534210Y-77721371D01*
X162534210Y-77721371D02*
X162477068Y-77692800D01*
X162477068Y-77692800D02*
X162448496Y-77664228D01*
X162448496Y-77664228D02*
X162419925Y-77607085D01*
X162419925Y-77607085D02*
X162419925Y-77549942D01*
X162419925Y-77549942D02*
X162448496Y-77492800D01*
X162448496Y-77492800D02*
X162477068Y-77464228D01*
X162477068Y-77464228D02*
X162534210Y-77435657D01*
X162534210Y-77435657D02*
X162648496Y-77407085D01*
X162648496Y-77407085D02*
X162705639Y-77378514D01*
X162705639Y-77378514D02*
X162734210Y-77349942D01*
X162734210Y-77349942D02*
X162762782Y-77292800D01*
X162762782Y-77292800D02*
X162762782Y-77235657D01*
X162762782Y-77235657D02*
X162734210Y-77178514D01*
X162734210Y-77178514D02*
X162705639Y-77149942D01*
X162705639Y-77149942D02*
X162648496Y-77121371D01*
X162648496Y-77121371D02*
X162505639Y-77121371D01*
X162505639Y-77121371D02*
X162419925Y-77149942D01*
X158477068Y-70949942D02*
X158534211Y-70921371D01*
X158534211Y-70921371D02*
X158619925Y-70921371D01*
X158619925Y-70921371D02*
X158705639Y-70949942D01*
X158705639Y-70949942D02*
X158762782Y-71007085D01*
X158762782Y-71007085D02*
X158791353Y-71064228D01*
X158791353Y-71064228D02*
X158819925Y-71178514D01*
X158819925Y-71178514D02*
X158819925Y-71264228D01*
X158819925Y-71264228D02*
X158791353Y-71378514D01*
X158791353Y-71378514D02*
X158762782Y-71435657D01*
X158762782Y-71435657D02*
X158705639Y-71492800D01*
X158705639Y-71492800D02*
X158619925Y-71521371D01*
X158619925Y-71521371D02*
X158562782Y-71521371D01*
X158562782Y-71521371D02*
X158477068Y-71492800D01*
X158477068Y-71492800D02*
X158448496Y-71464228D01*
X158448496Y-71464228D02*
X158448496Y-71264228D01*
X158448496Y-71264228D02*
X158562782Y-71264228D01*
X158191353Y-71521371D02*
X158191353Y-70921371D01*
X158191353Y-70921371D02*
X157848496Y-71521371D01*
X157848496Y-71521371D02*
X157848496Y-70921371D01*
X157562782Y-71521371D02*
X157562782Y-70921371D01*
X157562782Y-70921371D02*
X157419925Y-70921371D01*
X157419925Y-70921371D02*
X157334211Y-70949942D01*
X157334211Y-70949942D02*
X157277068Y-71007085D01*
X157277068Y-71007085D02*
X157248497Y-71064228D01*
X157248497Y-71064228D02*
X157219925Y-71178514D01*
X157219925Y-71178514D02*
X157219925Y-71264228D01*
X157219925Y-71264228D02*
X157248497Y-71378514D01*
X157248497Y-71378514D02*
X157277068Y-71435657D01*
X157277068Y-71435657D02*
X157334211Y-71492800D01*
X157334211Y-71492800D02*
X157419925Y-71521371D01*
X157419925Y-71521371D02*
X157562782Y-71521371D01*
X158677068Y-77121371D02*
X158334211Y-77121371D01*
X158505639Y-77721371D02*
X158505639Y-77121371D01*
X158191353Y-77121371D02*
X157791353Y-77721371D01*
X157791353Y-77121371D02*
X158191353Y-77721371D01*
X157562781Y-77492800D02*
X157105639Y-77492800D01*
X156848496Y-77549942D02*
X156562782Y-77549942D01*
X156905639Y-77721371D02*
X156705639Y-77121371D01*
X156705639Y-77121371D02*
X156505639Y-77721371D01*
X156305638Y-77492800D02*
X155848496Y-77492800D01*
X155219924Y-77721371D02*
X155419924Y-77435657D01*
X155562781Y-77721371D02*
X155562781Y-77121371D01*
X155562781Y-77121371D02*
X155334210Y-77121371D01*
X155334210Y-77121371D02*
X155277067Y-77149942D01*
X155277067Y-77149942D02*
X155248496Y-77178514D01*
X155248496Y-77178514D02*
X155219924Y-77235657D01*
X155219924Y-77235657D02*
X155219924Y-77321371D01*
X155219924Y-77321371D02*
X155248496Y-77378514D01*
X155248496Y-77378514D02*
X155277067Y-77407085D01*
X155277067Y-77407085D02*
X155334210Y-77435657D01*
X155334210Y-77435657D02*
X155562781Y-77435657D01*
X155019924Y-77121371D02*
X154619924Y-77721371D01*
X154619924Y-77121371D02*
X155019924Y-77721371D01*
X168791353Y-77721371D02*
X168791353Y-77121371D01*
X168791353Y-77121371D02*
X168648496Y-77121371D01*
X168648496Y-77121371D02*
X168562782Y-77149942D01*
X168562782Y-77149942D02*
X168505639Y-77207085D01*
X168505639Y-77207085D02*
X168477068Y-77264228D01*
X168477068Y-77264228D02*
X168448496Y-77378514D01*
X168448496Y-77378514D02*
X168448496Y-77464228D01*
X168448496Y-77464228D02*
X168477068Y-77578514D01*
X168477068Y-77578514D02*
X168505639Y-77635657D01*
X168505639Y-77635657D02*
X168562782Y-77692800D01*
X168562782Y-77692800D02*
X168648496Y-77721371D01*
X168648496Y-77721371D02*
X168791353Y-77721371D01*
X168219925Y-77692800D02*
X168134211Y-77721371D01*
X168134211Y-77721371D02*
X167991353Y-77721371D01*
X167991353Y-77721371D02*
X167934211Y-77692800D01*
X167934211Y-77692800D02*
X167905639Y-77664228D01*
X167905639Y-77664228D02*
X167877068Y-77607085D01*
X167877068Y-77607085D02*
X167877068Y-77549942D01*
X167877068Y-77549942D02*
X167905639Y-77492800D01*
X167905639Y-77492800D02*
X167934211Y-77464228D01*
X167934211Y-77464228D02*
X167991353Y-77435657D01*
X167991353Y-77435657D02*
X168105639Y-77407085D01*
X168105639Y-77407085D02*
X168162782Y-77378514D01*
X168162782Y-77378514D02*
X168191353Y-77349942D01*
X168191353Y-77349942D02*
X168219925Y-77292800D01*
X168219925Y-77292800D02*
X168219925Y-77235657D01*
X168219925Y-77235657D02*
X168191353Y-77178514D01*
X168191353Y-77178514D02*
X168162782Y-77149942D01*
X168162782Y-77149942D02*
X168105639Y-77121371D01*
X168105639Y-77121371D02*
X167962782Y-77121371D01*
X167962782Y-77121371D02*
X167877068Y-77149942D01*
X167277067Y-77721371D02*
X167477067Y-77435657D01*
X167619924Y-77721371D02*
X167619924Y-77121371D01*
X167619924Y-77121371D02*
X167391353Y-77121371D01*
X167391353Y-77121371D02*
X167334210Y-77149942D01*
X167334210Y-77149942D02*
X167305639Y-77178514D01*
X167305639Y-77178514D02*
X167277067Y-77235657D01*
X167277067Y-77235657D02*
X167277067Y-77321371D01*
X167277067Y-77321371D02*
X167305639Y-77378514D01*
X167305639Y-77378514D02*
X167334210Y-77407085D01*
X167334210Y-77407085D02*
X167391353Y-77435657D01*
X167391353Y-77435657D02*
X167619924Y-77435657D01*
D10*
X157766666Y-121374809D02*
X157766666Y-121731952D01*
X157766666Y-121731952D02*
X157790475Y-121803380D01*
X157790475Y-121803380D02*
X157838094Y-121851000D01*
X157838094Y-121851000D02*
X157909523Y-121874809D01*
X157909523Y-121874809D02*
X157957142Y-121874809D01*
X157528571Y-121874809D02*
X157528571Y-121374809D01*
X157528571Y-121374809D02*
X157338095Y-121374809D01*
X157338095Y-121374809D02*
X157290476Y-121398619D01*
X157290476Y-121398619D02*
X157266666Y-121422428D01*
X157266666Y-121422428D02*
X157242857Y-121470047D01*
X157242857Y-121470047D02*
X157242857Y-121541476D01*
X157242857Y-121541476D02*
X157266666Y-121589095D01*
X157266666Y-121589095D02*
X157290476Y-121612904D01*
X157290476Y-121612904D02*
X157338095Y-121636714D01*
X157338095Y-121636714D02*
X157528571Y-121636714D01*
X156766666Y-121874809D02*
X157052380Y-121874809D01*
X156909523Y-121874809D02*
X156909523Y-121374809D01*
X156909523Y-121374809D02*
X156957142Y-121446238D01*
X156957142Y-121446238D02*
X157004761Y-121493857D01*
X157004761Y-121493857D02*
X157052380Y-121517666D01*
D12*
%TO.C,J5*%
X149717500Y-123099500D02*
X149717500Y-123607500D01*
X149717500Y-123607500D02*
X150479500Y-122845500D01*
X149717500Y-123607500D02*
X150225500Y-123607500D01*
D13*
X149015500Y-124309500D02*
X149015500Y-125639500D01*
X147685500Y-124309500D02*
X149015500Y-124309500D01*
D12*
X146415500Y-124309500D02*
X138735500Y-124309500D01*
X146415500Y-124309500D02*
X146415500Y-126909500D01*
X138735500Y-124309500D02*
X138735500Y-129509500D01*
X149015500Y-126909500D02*
X149015500Y-129509500D01*
X146415500Y-126909500D02*
X149015500Y-126909500D01*
X149015500Y-129509500D02*
X138735500Y-129509500D01*
%TO.C,JP1*%
X155950000Y-119550000D02*
X155950000Y-120150000D01*
X156650000Y-120850000D02*
X158050000Y-120850000D01*
X158050000Y-118850000D02*
X156650000Y-118850000D01*
X158750000Y-120150000D02*
X158750000Y-119550000D01*
X156650000Y-118850000D02*
G75*
G03*
X155950000Y-119550000I-1J-699999D01*
G01*
X155950000Y-120150000D02*
G75*
G03*
X156650000Y-120850000I699999J-1D01*
G01*
X158750000Y-119550000D02*
G75*
G03*
X158050000Y-118850000I-700000J0D01*
G01*
X158050000Y-120850000D02*
G75*
G03*
X158750000Y-120150000I0J700000D01*
G01*
%TD*%
M02*
